<?xml version="1.0" standalone="no"?>
<!DOCTYPE svg PUBLIC "-//W3C//DTD SVG 20010904//EN"
 "http://www.w3.org/TR/2001/REC-SVG-20010904/DTD/svg10.dtd">
<svg version="1.0" xmlns="http://www.w3.org/2000/svg"
 width="640.000000pt" height="1280.000000pt" viewBox="0 0 640.000000 1280.000000"
 preserveAspectRatio="xMidYMid meet">
<g transform="translate(0.000000,1280.000000) scale(0.100000,-0.100000)" stroke="none">
<path fill-rule="evenodd" d="M4486 12770 c-34 -82 -112 -487 -185 -965 -161 -1050 -571 -3881
-740 -5110 -17 -121 -76 -546 -130 -945 -239 -1734 -401 -3024 -446 -3544 l-7
-79 -62 7 c-109 11 -323 55 -571 118 -132 34 -265 62 -296 64 -42 2 -68 10
-104 33 -27 17 -60 31 -73 31 -23 0 -24 -3 -20 -43 5 -42 47 -131 220 -467 86
-167 188 -388 248 -540 113 -283 174 -479 300 -965 46 -175 63 -226 93 -268
10 -15 23 -43 28 -62 13 -44 29 -44 68 1 41 46 60 77 211 339 327 565 532 846
969 1324 263 289 304 342 285 372 -11 18 -94 5 -158 -24 l-58 -27 16 25 c9 13
16 33 16 44 0 47 -69 55 -320 37 -223 -16 -350 -20 -534 -18 -108 2 -118 4
-113 20 63 214 129 509 187 832 95 536 228 1396 380 2455 38 264 76 527 84
585 9 58 52 363 96 678 44 314 116 827 160 1140 233 1659 388 2854 454 3512
52 512 60 637 60 965 1 336 -7 461 -29 492 -13 17 -15 16 -29 -17z m-2105
-10824 c155 -82 344 -147 532 -183 144 -28 469 -25 603 5 88 19 185 49 259 78
11 4 -16 -21 -60 -57 -217 -175 -456 -453 -627 -729 -96 -155 -229 -436 -270
-570 -3 -8 -10 45 -17 118 -42 464 -202 920 -453 1295 -32 48 -57 87 -54 87 2
0 41 -20 87 -44z"/>
</g>
</svg>
